/* XPM */
static char *_7f8ecdb53f44497ca99f161cff511f9850Q1EmmjXkx9dPw[] = {
/* columns rows colors chars-per-pixel */
"64 64 2 1 ",
"  c #22B14C",
". c #B5E61D",
/* pixels */
"................................................................",
"................................................................",
"................................................................",
"...   ..........................................................",
"..  ......... ........................   .......................",
".  .........  ............  .........  ......... ...............",
". .........  ............  .........  .........  ............  .",
". ........  ............  .......... .........  ............  ..",
". .......  ............  ........... ........  ............  ...",
"......... .......  .... ............ .......  ............  ....",
"................  ..... .................... .......  .... .....",
"...............  ...............  .................  ..... .....",
"..............  ...............  .................  ............",
".............  ...............  .................  .............",
".............................  .................  ..............",
"............................. ..................................",
"......................  ..... ..................................",
".....................  .........................................",
"....................  ..............   .........................",
"...................  ..............  ......... .................",
".....   ..........................  .........  ............  ...",
"....  ......... .................. .........  ............  ....",
"...  .........  ............  .... ........  ............  .....",
"... .........  ............  ..... .......  ............  ......",
"... ........  ............  .............. .......  .... .......",
"... .......  ............  ......................  ..... .......",
"........... .......  .... ......................  ..............",
"..................  ..... .....................  ...............",
".................  ...........................  ................",
"................  ..............................................",
"...............  ...............................................",
"................................................................",
"................................................................",
"....................................   .........................",
"...................................  ......... .................",
"......   .........................  .........  ............  ...",
".....  ......... ................. .........  ............  ....",
"....  .........  ............  ... ........  ............  .....",
".... .........  ............  .... .......  ............  ......",
".... ........  ............  ............. .......  .... .......",
".... .......  ............  .....................  ..... .......",
"............ .......  .... .....................  ..............",
"...................  ..... ....................  ...............",
"..................  ..........................  ................",
".................  .............................................",
"................  ..............................................",
"................................................................",
"................................................................",
"................................................................",
".......   ......................................................",
"......  ......... ...................   ........................",
".....  .........  ............  ....  ......... ................",
"..... .........  ............  ....  .........  ............  ..",
"..... ........  ............  ..... .........  ............  ...",
"..... .......  ............  ...... ........  ............  ....",
"............. .......  .... ....... .......  ............  .....",
"....................  ..... ............... .......  .... ......",
"...................  .............................  ..... ......",
"..................  .............................  .............",
".................  .............................  ..............",
"...............................................  ...............",
"................................................................",
"................................................................",
"................................................................"
};
