/* XPM */
static char *_3671564ceca48f8e680bb19db721a9ewJnhb2ffbz24732E[] = {
/* columns rows colors chars-per-pixel */
"64 64 2 1 ",
"  c #B97A57",
". c #C9855F",
/* pixels */
"                                                                ",
"                                                                ",
"                                                                ",
"                                                                ",
"                                                                ",
"         ..................................................     ",
"          .................................................     ",
"           ................................................     ",
"            ...............................................     ",
"     .       ..............................................     ",
"     ..       .............................................     ",
"     ...       ............................................     ",
"     ....       ...........................................     ",
"     .....       ..........................................     ",
"     ......       .........................................     ",
"     .......       ........................................     ",
"     ........       .......................................     ",
"     .........       ......................................     ",
"     ..........       .....................................     ",
"     ...........       ....................................     ",
"     ............       ...................................     ",
"     .............       ..................................     ",
"     ..............       .................................     ",
"     ...............       ................................     ",
"     ................       ...............................     ",
"     .................       ..............................     ",
"     ..................       .............................     ",
"     ...................       ............................     ",
"     ....................       ...........................     ",
"     .....................       ..........................     ",
"     ......................       .........................     ",
"     .......................       ........................     ",
"     ........................       .......................     ",
"     .........................       ......................     ",
"     ..........................       .....................     ",
"     ...........................       ....................     ",
"     ............................       ...................     ",
"     .............................       ..................     ",
"     ..............................       .................     ",
"     ...............................       ................     ",
"     ................................       ...............     ",
"     .................................       ..............     ",
"     ..................................       .............     ",
"     ...................................       ............     ",
"     ....................................       ...........     ",
"     .....................................       ..........     ",
"     ......................................       .........     ",
"     .......................................       ........     ",
"     ........................................       .......     ",
"     .........................................       ......     ",
"     ..........................................       .....     ",
"     ...........................................       ....     ",
"     ............................................       ...     ",
"     .............................................       ..     ",
"     ..............................................       .     ",
"     ...............................................            ",
"     ................................................           ",
"     .................................................          ",
"     ..................................................         ",
"                                                                ",
"                                                                ",
"                                                                ",
"                                                                ",
"                                                                "
};
