/* XPM */
static char *_23517bfdb254f99b23259f5efe0c87bn1jAw4cuaAtNGaQx[] = {
/* columns rows colors chars-per-pixel */
"64 64 3 1 ",
"  c None",
". c #F7EB00",
"X c #FFF200",
/* pixels */
"                            ........                            ",
"                       ..................                       ",
"                    ........................                    ",
"                  ............................                  ",
"                ................................                ",
"              ..............XXXXXXXX..............              ",
"             ...........XXXXXXXXXXXXXXXX...........             ",
"            .........XXXXXXXXXXXXXXXXXXXXXX.........            ",
"           ........XXXXXXXXXXXXXXXXXXXXXXXXXX.........          ",
"         ........XXXXXXXXXXXXXXXXXXXXXXXXXXXXXX........         ",
"         .......XXXXXXXXXXXXXXXXXXXXXXXXXXXXXXXX........        ",
"        .......XXXXXXXXXXXXXXXXXXXXXXXXXXXXXXXXXX.......        ",
"       .......XXXXXXXXXXXXXXXXXXXXXXXXXXXXXXXXXXXXX......       ",
"      .......XXXXXXXXXXXXXXXXXXXXXXXXXXXXXXXXXXXXXXX......      ",
"     .......XXXXXXXXXXXXXXXXXXXXXXXXXXXXXXXXXXXXXXXX.......     ",
"     ......XXXXXXXXXXXXXXXXXXXXXXXXXXXXXXXXXXXXXXXXXX......     ",
"    ......XXXXXXXXXXXXXXXXXXXXXXXXXXXXXXXXXXXXXXXXXXXX......    ",
"    .....XXXXXXXXXXXXXXXXXXXXXXXXXXXXXXXXXXXXXXXXXXXXXX.....    ",
"   ......XXXXXXXXXXXXXXXXXXXXXXXXXXXXXXXXXXXXXXXXXXXXXX......   ",
"   .....XXXXXXXXXXXXXXXXXXXXXXXXXXXXXXXXXXXXXXXXXXXXXXXX.....   ",
"  ......XXXXXXXXXXXXXXXXXXXXXXXXXXXXXXXXXXXXXXXXXXXXXXXX......  ",
"  .....XXXXXXXXXXXXXXXXXXXXXXXXXXXXXXXXXXXXXXXXXXXXXXXXXX.....  ",
"  .....XXXXXXXXXXXXXXXXXXXXXXXXXXXXXXXXXXXXXXXXXXXXXXXXXX.....  ",
" ......XXXXXXXXXXXXXXXXXXXXXXXXXXXXXXXXXXXXXXXXXXXXXXXXXX...... ",
" .....XXXXXXXXXXXXXXXXXXXXXXXXXXXXXXXXXXXXXXXXXXXXXXXXXXXX..... ",
" .....XXXXXXXXXXXXXXXXXXXXXXXXXXXXXXXXXXXXXXXXXXXXXXXXXXXX..... ",
" .....XXXXXXXXXXXXXXXXXXXXXXXXXXXXXXXXXXXXXXXXXXXXXXXXXXXX..... ",
" .....XXXXXXXXXXXXXXXXXXXXXXXXXXXXXXXXXXXXXXXXXXXXXXXXXXXXX.....",
".....XXXXXXXXXXXXXXXXXXXXXXXXXXXXXXXXXXXXXXXXXXXXXXXXXXXXXX.....",
".....XXXXXXXXXXXXXXXXXXXXXXXXXXXXXXXXXXXXXXXXXXXXXXXXXXXXXX.....",
".....XXXXXXXXXXXXXXXXXXXXXXXXXXXXXXXXXXXXXXXXXXXXXXXXXXXXXX.....",
".....XXXXXXXXXXXXXXXXXXXXXXXXXXXXXXXXXXXXXXXXXXXXXXXXXXXXXX.....",
".....XXXXXXXXXXXXXXXXXXXXXXXXXXXXXXXXXXXXXXXXXXXXXXXXXXXXXX.....",
".....XXXXXXXXXXXXXXXXXXXXXXXXXXXXXXXXXXXXXXXXXXXXXXXXXXXXXX.....",
".....XXXXXXXXXXXXXXXXXXXXXXXXXXXXXXXXXXXXXXXXXXXXXXXXXXXXXX.....",
".....XXXXXXXXXXXXXXXXXXXXXXXXXXXXXXXXXXXXXXXXXXXXXXXXXXXXXX.....",
" ....XXXXXXXXXXXXXXXXXXXXXXXXXXXXXXXXXXXXXXXXXXXXXXXXXXXXXX.....",
" .....XXXXXXXXXXXXXXXXXXXXXXXXXXXXXXXXXXXXXXXXXXXXXXXXXXXX..... ",
" .....XXXXXXXXXXXXXXXXXXXXXXXXXXXXXXXXXXXXXXXXXXXXXXXXXXXX..... ",
" .....XXXXXXXXXXXXXXXXXXXXXXXXXXXXXXXXXXXXXXXXXXXXXXXXXXXX..... ",
" ......XXXXXXXXXXXXXXXXXXXXXXXXXXXXXXXXXXXXXXXXXXXXXXXXXXX..... ",
"  .....XXXXXXXXXXXXXXXXXXXXXXXXXXXXXXXXXXXXXXXXXXXXXXXXXX.....  ",
"  .....XXXXXXXXXXXXXXXXXXXXXXXXXXXXXXXXXXXXXXXXXXXXXXXXXX.....  ",
"  ......XXXXXXXXXXXXXXXXXXXXXXXXXXXXXXXXXXXXXXXXXXXXXXXX......  ",
"   .....XXXXXXXXXXXXXXXXXXXXXXXXXXXXXXXXXXXXXXXXXXXXXXXX......  ",
"   ......XXXXXXXXXXXXXXXXXXXXXXXXXXXXXXXXXXXXXXXXXXXXXX......   ",
"    .....XXXXXXXXXXXXXXXXXXXXXXXXXXXXXXXXXXXXXXXXXXXXXX.....    ",
"    ......XXXXXXXXXXXXXXXXXXXXXXXXXXXXXXXXXXXXXXXXXXXX......    ",
"     ......XXXXXXXXXXXXXXXXXXXXXXXXXXXXXXXXXXXXXXXXXX......     ",
"     .......XXXXXXXXXXXXXXXXXXXXXXXXXXXXXXXXXXXXXXXX.......     ",
"      ......XXXXXXXXXXXXXXXXXXXXXXXXXXXXXXXXXXXXXXXX......      ",
"       ......XXXXXXXXXXXXXXXXXXXXXXXXXXXXXXXXXXXXXX......       ",
"        .......XXXXXXXXXXXXXXXXXXXXXXXXXXXXXXXXXX.......        ",
"        ........XXXXXXXXXXXXXXXXXXXXXXXXXXXXXXXX........        ",
"         ........XXXXXXXXXXXXXXXXXXXXXXXXXXXXXX........         ",
"          .........XXXXXXXXXXXXXXXXXXXXXXXXXX.........          ",
"            .........XXXXXXXXXXXXXXXXXXXXXX.........            ",
"             ...........XXXXXXXXXXXXXXXXX..........             ",
"              .............XXXXXXXXXX.............              ",
"                ................................                ",
"                  ............................                  ",
"                    .........................                   ",
"                       ..................                       ",
"                           ..........                           "
};
