/* XPM */
static char *_9b07e2967594dbfcd6ae9a13a8f2f92lfq3po8UwzTCdq5D[] = {
/* columns rows colors chars-per-pixel */
"64 64 4 1 ",
"  c #B5E61D",
". c #F7EB00",
"X c #22B14C",
"o c #FFF200",
/* pixels */
"                            ........                            ",
"                       ..................                       ",
"                    ........................                    ",
"   XXX            ............................                  ",
"  XX         X  ................................                ",
" XX         XX..............oooooooo..............              ",
" X         XX...........oooooooooooooooo...........          XX ",
" X        XX.........oooooooooooooooooooooo.........        XX  ",
" X       XX........oooooooooooooooooooooooooo.........     XX   ",
"         ........oooooooooooooooooooooooooooooo........   XX    ",
"         .......oooooooooooooooooooooooooooooooo........  X     ",
"        .......oooooooooooooooooooooooooooooooooo.......  X     ",
"       .......ooooooooooooooooooooooooooooooooooooo......       ",
"      .......ooooooooooooooooooooooooooooooooooooooo......      ",
"     .......oooooooooooooooooooooooooooooooooooooooo.......     ",
"     ......oooooooooooooooooooooooooooooooooooooooooo......     ",
"    ......oooooooooooooooooooooooooooooooooooooooooooo......    ",
"    .....oooooooooooooooooooooooooooooooooooooooooooooo.....    ",
"   ......oooooooooooooooooooooooooooooooooooooooooooooo......   ",
"   .....oooooooooooooooooooooooooooooooooooooooooooooooo.....   ",
"  ......oooooooooooooooooooooooooooooooooooooooooooooooo......  ",
"  .....oooooooooooooooooooooooooooooooooooooooooooooooooo.....  ",
"  .....oooooooooooooooooooooooooooooooooooooooooooooooooo.....  ",
" ......oooooooooooooooooooooooooooooooooooooooooooooooooo...... ",
" .....oooooooooooooooooooooooooooooooooooooooooooooooooooo..... ",
" .....oooooooooooooooooooooooooooooooooooooooooooooooooooo..... ",
" .....oooooooooooooooooooooooooooooooooooooooooooooooooooo..... ",
" .....ooooooooooooooooooooooooooooooooooooooooooooooooooooo.....",
".....oooooooooooooooooooooooooooooooooooooooooooooooooooooo.....",
".....oooooooooooooooooooooooooooooooooooooooooooooooooooooo.....",
".....oooooooooooooooooooooooooooooooooooooooooooooooooooooo.....",
".....oooooooooooooooooooooooooooooooooooooooooooooooooooooo.....",
".....oooooooooooooooooooooooooooooooooooooooooooooooooooooo.....",
".....oooooooooooooooooooooooooooooooooooooooooooooooooooooo.....",
".....oooooooooooooooooooooooooooooooooooooooooooooooooooooo.....",
".....oooooooooooooooooooooooooooooooooooooooooooooooooooooo.....",
" ....oooooooooooooooooooooooooooooooooooooooooooooooooooooo.....",
" .....oooooooooooooooooooooooooooooooooooooooooooooooooooo..... ",
" .....oooooooooooooooooooooooooooooooooooooooooooooooooooo..... ",
" .....oooooooooooooooooooooooooooooooooooooooooooooooooooo..... ",
" ......ooooooooooooooooooooooooooooooooooooooooooooooooooo..... ",
"  .....oooooooooooooooooooooooooooooooooooooooooooooooooo.....  ",
"  .....oooooooooooooooooooooooooooooooooooooooooooooooooo.....  ",
"  ......oooooooooooooooooooooooooooooooooooooooooooooooo......  ",
"   .....oooooooooooooooooooooooooooooooooooooooooooooooo......  ",
"   ......oooooooooooooooooooooooooooooooooooooooooooooo......   ",
"    .....oooooooooooooooooooooooooooooooooooooooooooooo.....    ",
"    ......oooooooooooooooooooooooooooooooooooooooooooo......    ",
"     ......oooooooooooooooooooooooooooooooooooooooooo......     ",
"     .......oooooooooooooooooooooooooooooooooooooooo.......     ",
"      ......oooooooooooooooooooooooooooooooooooooooo......      ",
"     XX......oooooooooooooooooooooooooooooooooooooo......       ",
"     X  .......oooooooooooooooooooooooooooooooooo.......    XX  ",
"     X  ........oooooooooooooooooooooooooooooooo........   XX   ",
"     X   ........oooooooooooooooooooooooooooooo........   XX    ",
"          .........oooooooooooooooooooooooooo.........   XX     ",
"            .........oooooooooooooooooooooo.........X    X      ",
"             ...........ooooooooooooooooo..........X     X      ",
"              .............oooooooooo.............X             ",
"                ................................XX              ",
"                  ............................ XX               ",
"                    .........................                   ",
"                       ..................                       ",
"                           ..........                           "
};
