/* XPM */
static char *cb10aa5ad3bd4c7fca227b215d035314wRnTOkS37nuDcuWX[] = {
/* columns rows colors chars-per-pixel */
"64 64 4 1 ",
"  c None",
". c #B97A57",
"X c #F7EB00",
"o c #C9855F",
/* pixels */
"                                                                ",
"                        .................                       ",
"                  .............................                 ",
"              .....................................             ",
"            .........................................           ",
"          .............................................         ",
"         ...............oooooo.....oooooo...............        ",
"        ..........oooooooooooo.....oooooooooooo..........       ",
"        .....ooooooooooooooooo.....ooooooooooooooooo.....       ",
"        .....ooooooooooooooooo.....ooooooooooooooooo.....       ",
"        .....ooooooooooooooooo.....ooooooooooooooooo.....       ",
"        .....ooooooooooooooooo.....ooooooooooooooooo.....       ",
"        .....ooooooooooooooooo.....ooooooooooooooooo.....       ",
"        .....ooooooooooooooooo.....ooooooooooooooooo.....       ",
"        .....ooooooooooooooooo.....ooooooooooooooooo.....       ",
"        .....ooooooooooooooooo.....ooooooooooooooooo.....       ",
"        .....ooooooooooooooooo.....ooooooooooooooooo.....       ",
"        .....ooooooooooooooooo.....ooooooooooooooooo.....       ",
"        .....ooooooooooooooooo.....ooooooooooooooooo.....       ",
"        .....ooooooooooooooooo.....ooooooooooooooooo.....       ",
"        .....ooooooooooooooooo.....ooooooooooooooooo.....       ",
"        .....ooooooooooooooooo.....ooooooooooooooooo.....       ",
"        .....ooooooooooooooooo.....ooooooooooooooooo.....       ",
"        .....ooooooooooooooooo.....ooooooooooooooooo.....       ",
"        .....ooooooooooooooooo.....ooooooooooooooooo.....       ",
"        .....ooooooooooooooooo.....ooooooooooooooooo.....       ",
"        .....ooooooooooooooooo.....ooooooooooooooooo.....       ",
"        .....ooooooooooooooooo.....ooooooooooooooooo.....       ",
"        .....ooooooooooooooooo.....ooooooooooooooooo.....       ",
"        .....ooooooooooooooooo.....ooooooooooooooooo.....       ",
"        .....oooooooooooooXXoo.....ooXXooooooooooooo.....       ",
"        .....ooooooooooooXXXXo.....oXXXXoooooooooooo.....       ",
"        .....oooooooooooXXXXXX.....XXXXXXooooooooooo.....       ",
"        .....oooooooooooXXXXXX.....XXXXXXooooooooooo.....       ",
"        .....ooooooooooooXXXXo.....oXXXXoooooooooooo.....       ",
"        .....oooooooooooooXXoo.....ooXXooooooooooooo.....       ",
"        .....ooooooooooooooooo.....ooooooooooooooooo.....       ",
"        .....ooooooooooooooooo.....ooooooooooooooooo.....       ",
"        .....ooooooooooooooooo.....ooooooooooooooooo.....       ",
"        .....ooooooooooooooooo.....ooooooooooooooooo.....       ",
"        .....ooooooooooooooooo.....ooooooooooooooooo.....       ",
"        .....ooooooooooooooooo.....ooooooooooooooooo.....       ",
"        .....ooooooooooooooooo.....ooooooooooooooooo.....       ",
"        .....ooooooooooooooooo.....ooooooooooooooooo.....       ",
"        .....ooooooooooooooooo.....ooooooooooooooooo.....       ",
"        .....ooooooooooooooooo.....ooooooooooooooooo.....       ",
"        .....ooooooooooooooooo.....ooooooooooooooooo.....       ",
"        .....ooooooooooooooooo.....ooooooooooooooooo.....       ",
"        .....ooooooooooooooooo.....ooooooooooooooooo.....       ",
"        .....ooooooooooooooooo.....ooooooooooooooooo.....       ",
"        .....ooooooooooooooooo.....ooooooooooooooooo.....       ",
"        .....ooooooooooooooooo.....ooooooooooooooooo.....       ",
"        .....ooooooooooooooooo.....ooooooooooooooooo.....       ",
"        .....ooooooooooooooooo.....ooooooooooooooooo.....       ",
"        .....ooooooooooooooooo.....ooooooooooooooooo.....       ",
"        .....ooooooooooooooooo.....ooooooooooooooooo.....       ",
"        .....ooooooooooooooooo.....ooooooooooooooooo.....       ",
"        .....ooooooooooooooooo.....ooooooooooooooooo.....       ",
"        .....ooooooooooooooooo.....ooooooooooooooooo.....       ",
"        .....ooooooooooooooooo.....ooooooooooooooooo.....       ",
"        .................................................       ",
"        .................................................       ",
"        .................................................       ",
"        .................................................       "
};
