/* XPM */
static char *c7c70f045e514ec2a8cac3bd11fb034bCMYZ5RvmKrdoh2eW[] = {
/* columns rows colors chars-per-pixel */
"64 64 5 1 ",
"  c #B5E61D",
". c #B97A57",
"X c #22B14C",
"o c #C9855F",
"O c #F7EB00",
/* pixels */
"                                                                ",
"                        .................                       ",
"                  .............................                 ",
"   XXX        .....................................             ",
"  XX        .........................................           ",
" XX       .............................................         ",
" X       ...............oooooo.....oooooo...............     XX ",
" X      ..........oooooooooooo.....oooooooooooo..........   XX  ",
" X      .....ooooooooooooooooo.....ooooooooooooooooo.....  XX   ",
"        .....ooooooooooooooooo.....ooooooooooooooooo..... XX    ",
"        .....ooooooooooooooooo.....ooooooooooooooooo..... X     ",
"        .....ooooooooooooooooo.....ooooooooooooooooo..... X     ",
"        .....ooooooooooooooooo.....ooooooooooooooooo.....       ",
"        .....ooooooooooooooooo.....ooooooooooooooooo.....       ",
"        .....ooooooooooooooooo.....ooooooooooooooooo.....       ",
"        .....ooooooooooooooooo.....ooooooooooooooooo.....       ",
"        .....ooooooooooooooooo.....ooooooooooooooooo.....       ",
"        .....ooooooooooooooooo.....ooooooooooooooooo.....       ",
"        .....ooooooooooooooooo.....ooooooooooooooooo.....       ",
"        .....ooooooooooooooooo.....ooooooooooooooooo.....       ",
"     XXX.....ooooooooooooooooo.....ooooooooooooooooo.....  XX   ",
"    XX  .....ooooooooooooooooo.....ooooooooooooooooo..... XX    ",
"   XX   .....ooooooooooooooooo.....ooooooooooooooooo.....XX     ",
"   X    .....ooooooooooooooooo.....ooooooooooooooooo.....X      ",
"   X    .....ooooooooooooooooo.....ooooooooooooooooo.....       ",
"   X    .....ooooooooooooooooo.....ooooooooooooooooo.....       ",
"        .....ooooooooooooooooo.....ooooooooooooooooo.....       ",
"        .....ooooooooooooooooo.....ooooooooooooooooo.....       ",
"        .....ooooooooooooooooo.....ooooooooooooooooo.....       ",
"        .....ooooooooooooooooo.....ooooooooooooooooo.....       ",
"        .....oooooooooooooOOoo.....ooOOooooooooooooo.....       ",
"        .....ooooooooooooOOOOo.....oOOOOoooooooooooo.....       ",
"        .....oooooooooooOOOOOO.....OOOOOOooooooooooo.....       ",
"        .....oooooooooooOOOOOO.....OOOOOOooooooooooo.....       ",
"        .....ooooooooooooOOOOo.....oOOOOoooooooooooo.....       ",
"      XX.....oooooooooooooOOoo.....ooOOooooooooooooo.....  XX   ",
"     XX .....ooooooooooooooooo.....ooooooooooooooooo..... XX    ",
"    XX  .....ooooooooooooooooo.....ooooooooooooooooo.....XX     ",
"    X   .....ooooooooooooooooo.....ooooooooooooooooo.....X      ",
"    X   .....ooooooooooooooooo.....ooooooooooooooooo.....       ",
"    X   .....ooooooooooooooooo.....ooooooooooooooooo.....       ",
"        .....ooooooooooooooooo.....ooooooooooooooooo.....       ",
"        .....ooooooooooooooooo.....ooooooooooooooooo.....       ",
"        .....ooooooooooooooooo.....ooooooooooooooooo.....       ",
"        .....ooooooooooooooooo.....ooooooooooooooooo.....       ",
"        .....ooooooooooooooooo.....ooooooooooooooooo.....       ",
"        .....ooooooooooooooooo.....ooooooooooooooooo.....       ",
"        .....ooooooooooooooooo.....ooooooooooooooooo.....       ",
"        .....ooooooooooooooooo.....ooooooooooooooooo.....       ",
"       X.....ooooooooooooooooo.....ooooooooooooooooo.....       ",
"      XX.....ooooooooooooooooo.....ooooooooooooooooo.....       ",
"     XX .....ooooooooooooooooo.....ooooooooooooooooo.....       ",
"     X  .....ooooooooooooooooo.....ooooooooooooooooo.....   XX  ",
"     X  .....ooooooooooooooooo.....ooooooooooooooooo.....  XX   ",
"     X  .....ooooooooooooooooo.....ooooooooooooooooo..... XX    ",
"        .....ooooooooooooooooo.....ooooooooooooooooo.....XX     ",
"        .....ooooooooooooooooo.....ooooooooooooooooo.....X      ",
"        .....ooooooooooooooooo.....ooooooooooooooooo.....X      ",
"        .....ooooooooooooooooo.....ooooooooooooooooo.....       ",
"        .....ooooooooooooooooo.....ooooooooooooooooo.....       ",
"        .................................................       ",
"        .................................................       ",
"        .................................................       ",
"        .................................................       "
};
