/* XPM */
static char *_0e22d0288d64e73bf9251199483affe03YTxSb9NjcSufK9[] = {
/* columns rows colors chars-per-pixel */
"64 64 2 1 ",
"  c None",
". c black",
/* pixels */
"                            ........                            ",
"                          ............                          ",
"                         ..............                         ",
"                        ................                        ",
"                       ..................                       ",
"                       ..................                       ",
"                      ....................                      ",
"                      ....................                      ",
"                      ....................                      ",
"                      ....................                      ",
"                      ....................                      ",
"                      ....................                      ",
"                       ..................                       ",
"                       ..................                       ",
"                        ................                        ",
"                         ..............                         ",
"                          ............                          ",
"                            ........                            ",
"                            ........                            ",
"                            ........                            ",
"                            ........                            ",
"                           ..........                           ",
"                          ............                          ",
"                         ..............                         ",
"                        ................                        ",
"                       ..................                       ",
"                      ....................                      ",
"                     ......................                     ",
"                    ....... ........ .......                    ",
"                   .......  ........  .......                   ",
"                  .......   ........   .......                  ",
"                 .......    ........    .......                 ",
"                .......     ........     .......                ",
"                ......      ........      ......                ",
"                .....       ........       .....                ",
"                 ...        ........        ...                 ",
"                            ........                            ",
"                            ........                            ",
"                            ........                            ",
"                            ........                            ",
"                            ........                            ",
"                            ........                            ",
"                           ..........                           ",
"                           ..........                           ",
"                          ............                          ",
"                          .....  .....                          ",
"                         ......  ......                         ",
"                        ......    ......                        ",
"                        ......    ......                        ",
"                       ......      ......                       ",
"                       .....        .....                       ",
"                      ......        ......                      ",
"                      .....          .....                      ",
"                     ......          ......                     ",
"                     .....            .....                     ",
"                    ......            ......                    ",
"                   ......              ......                   ",
"                   ......              ......                   ",
"                  ......                ......                  ",
"                  .....                  .....                  ",
"                 ......                  ......                 ",
"                 .....                    .....                 ",
"                 .....                    .....                 ",
"                  ...                      ...                  "
};
