/* XPM */
static char *_296c9f971ab402bf28c023716203280LsyvRliEOzd7d2Vl[] = {
/* columns rows colors chars-per-pixel */
"64 64 3 1 ",
"  c #B5E61D",
". c black",
"X c #22B14C",
/* pixels */
"                            ........                            ",
"                          ............                          ",
"                         ..............                         ",
"   XXX                  ................                        ",
"  XX         X         ..................                       ",
" XX         XX         ..................       X               ",
" X         XX         ....................     XX            XX ",
" X        XX          ....................    XX            XX  ",
" X       XX           ....................   XX            XX   ",
"         X       XX   ....................  XX            XX    ",
"                XX    ....................  X       XX    X     ",
"               XX     ....................         XX     X     ",
"              XX       ..................         XX            ",
"             XX        ..................        XX             ",
"                        ................        XX              ",
"                         ..............                         ",
"                      XX  ............                          ",
"                     XX     ........                            ",
"                    XX      ........XXX                         ",
"                   XX       ........X         X                 ",
"     XXX                    ........         XX            XX   ",
"    XX         X           ..........       XX            XX    ",
"   XX         XX          ............     XX            XX     ",
"   X         XX          ..............   XX            XX      ",
"   X        XX          ................  X       XX    X       ",
"   X       XX          ..................        XX     X       ",
"           X       XX ....................      XX              ",
"                  XX ......................    XX               ",
"                 XX ....... ........ .......  XX                ",
"                XX .......  ........  .......                   ",
"               XX .......   ........   .......                  ",
"                 .......    ........    .......                 ",
"                .......     ........     .......                ",
"                ......      ........XXX   ......                ",
"                .....       ........X      .....                ",
"      XXX        ...        ........        ...            XX   ",
"     XX         X           ........        XX            XX    ",
"    XX         XX           ........       XX            XX     ",
"    X         XX            ........      XX            XX      ",
"    X        XX            X........      X       XX    X       ",
"    X       XX            XX........             XX     X       ",
"            X       XX    X ........            XX              ",
"                   XX     X..........          XX               ",
"                  XX       ..........         XX                ",
"                 XX       ............                          ",
"                XX        .....  .....                          ",
"                         ......  ......                         ",
"                        ......    ......                        ",
"                        ......    ......                        ",
"       XXX             ......      ......                       ",
"      XX         X     .....        .....                       ",
"     XX         XX    ......  XX    ......     X                ",
"     X         XX     .....  XX    XX.....    XX            XX  ",
"     X        XX     ...... XX     X ......  XX            XX   ",
"     X       XX      ..... XX      X  ..... XX            XX    ",
"             X      ...... X       X  ......X            XX     ",
"                   ......  X           ......      XX    X      ",
"                   ......              ......     XX     X      ",
"                  ......                ......   XX             ",
"                 X.....                  .....  XX              ",
"                 ......                  ......XX               ",
"                 .....                    .....                 ",
"                 .....                    .....                 ",
"                  ...                      ...                  "
};
