/* XPM */
static char *_8a6d0446fb04f8092a4b688389f0029bubuIJX4MpBFypOF[] = {
/* columns rows colors chars-per-pixel */
"64 64 6 1 ",
"  c #B5E61D",
". c black",
"X c #B97A57",
"o c #22B14C",
"O c #C9855F",
"+ c #F7EB00",
/* pixels */
"                            ........                            ",
"                        XX............XXX                       ",
"                  XXXXXXX..............XXXXXXXX                 ",
"   ooo        XXXXXXXXXX................XXXXXXXXXXX             ",
"  oo        XXXXXXXXXXX..................XXXXXXXXXXXX           ",
" oo       XXXXXXXXXXXXX..................XXXXXXXXXXXXXX         ",
" o       XXXXXXXXXXXXX....................XXXXXXXXXXXXXX     oo ",
" o      XXXXXXXXXXOOOO....................OOOOOXXXXXXXXXX   oo  ",
" o      XXXXXOOOOOOOOO....................OOOOOOOOOOXXXXX  oo   ",
"        XXXXXOOOOOOOOO....................OOOOOOOOOOXXXXX oo    ",
"        XXXXXOOOOOOOOO....................OOOOOOOOOOXXXXX o     ",
"        XXXXXOOOOOOOOO....................OOOOOOOOOOXXXXX o     ",
"        XXXXXOOOOOOOOOO..................OOOOOOOOOOOXXXXX       ",
"        XXXXXOOOOOOOOOO..................OOOOOOOOOOOXXXXX       ",
"        XXXXXOOOOOOOOOOO................OOOOOOOOOOOOXXXXX       ",
"        XXXXXOOOOOOOOOOOO..............OOOOOOOOOOOOOXXXXX       ",
"        XXXXXOOOOOOOOOOOOO............OOOOOOOOOOOOOOXXXXX       ",
"        XXXXXOOOOOOOOOOOOOOO........OOOOOOOOOOOOOOOOXXXXX       ",
"        XXXXXOOOOOOOOOOOOOOO........OOOOOOOOOOOOOOOOXXXXX       ",
"        XXXXXOOOOOOOOOOOOOOO........OOOOOOOOOOOOOOOOXXXXX       ",
"     oooXXXXXOOOOOOOOOOOOOOO........OOOOOOOOOOOOOOOOXXXXX  oo   ",
"    oo  XXXXXOOOOOOOOOOOOOO..........OOOOOOOOOOOOOOOXXXXX oo    ",
"   oo   XXXXXOOOOOOOOOOOOO............OOOOOOOOOOOOOOXXXXXoo     ",
"   o    XXXXXOOOOOOOOOOOO..............OOOOOOOOOOOOOXXXXXo      ",
"   o    XXXXXOOOOOOOOOOO................OOOOOOOOOOOOXXXXX       ",
"   o    XXXXXOOOOOOOOOO..................OOOOOOOOOOOXXXXX       ",
"        XXXXXOOOOOOOOO....................OOOOOOOOOOXXXXX       ",
"        XXXXXOOOOOOOO......................OOOOOOOOOXXXXX       ",
"        XXXXXOOOOOOO.......O........O.......OOOOOOOOXXXXX       ",
"        XXXXXOOOOOO.......OO........OO.......OOOOOOOXXXXX       ",
"        XXXXXOOOOO.......O++........O++.......OOOOOOXXXXX       ",
"        XXXXXOOOO.......O+++........++++.......OOOOOXXXXX       ",
"        XXXXXOOO.......O++++........+++++.......OOOOXXXXX       ",
"        XXXXXOOO......OO++++........+++++O......OOOOXXXXX       ",
"        XXXXXOOO.....OOOO+++........++++OOO.....OOOOXXXXX       ",
"      ooXXXXXOOOO...OOOOOO++........O++OOOOO...OOOOOXXXXX  oo   ",
"     oo XXXXXOOOOOOOOOOOOOOO........OOOOOOOOOOOOOOOOXXXXX oo    ",
"    oo  XXXXXOOOOOOOOOOOOOOO........OOOOOOOOOOOOOOOOXXXXXoo     ",
"    o   XXXXXOOOOOOOOOOOOOOO........OOOOOOOOOOOOOOOOXXXXXo      ",
"    o   XXXXXOOOOOOOOOOOOOOO........OOOOOOOOOOOOOOOOXXXXX       ",
"    o   XXXXXOOOOOOOOOOOOOOO........OOOOOOOOOOOOOOOOXXXXX       ",
"        XXXXXOOOOOOOOOOOOOOO........OOOOOOOOOOOOOOOOXXXXX       ",
"        XXXXXOOOOOOOOOOOOOO..........OOOOOOOOOOOOOOOXXXXX       ",
"        XXXXXOOOOOOOOOOOOOO..........OOOOOOOOOOOOOOOXXXXX       ",
"        XXXXXOOOOOOOOOOOOO............OOOOOOOOOOOOOOXXXXX       ",
"        XXXXXOOOOOOOOOOOOO.....XX.....OOOOOOOOOOOOOOXXXXX       ",
"        XXXXXOOOOOOOOOOOO......XX......OOOOOOOOOOOOOXXXXX       ",
"        XXXXXOOOOOOOOOOO......XXXX......OOOOOOOOOOOOXXXXX       ",
"        XXXXXOOOOOOOOOOO......XXXX......OOOOOOOOOOOOXXXXX       ",
"       oXXXXXOOOOOOOOOO......OXXXXX......OOOOOOOOOOOXXXXX       ",
"      ooXXXXXOOOOOOOOOO.....OOXXXXXO.....OOOOOOOOOOOXXXXX       ",
"     oo XXXXXOOOOOOOOO......OOXXXXXO......OOOOOOOOOOXXXXX       ",
"     o  XXXXXOOOOOOOOO.....OOOXXXXXOO.....OOOOOOOOOOXXXXX   oo  ",
"     o  XXXXXOOOOOOOO......OOOXXXXXOO......OOOOOOOOOXXXXX  oo   ",
"     o  XXXXXOOOOOOOO.....OOOOXXXXXOOO.....OOOOOOOOOXXXXX oo    ",
"        XXXXXOOOOOOO......OOOOXXXXXOOO......OOOOOOOOXXXXXoo     ",
"        XXXXXOOOOOO......OOOOOXXXXXOOOO......OOOOOOOXXXXXo      ",
"        XXXXXOOOOOO......OOOOOXXXXXOOOO......OOOOOOOXXXXXo      ",
"        XXXXXOOOOO......OOOOOOXXXXXOOOOO......OOOOOOXXXXX       ",
"        XXXXXOOOOO.....OOOOOOOXXXXXOOOOOO.....OOOOOOXXXXX       ",
"        XXXXXXXXX......XXXXXXXXXXXXXXXXXX......XXXXXXXXXX       ",
"        XXXXXXXXX.....XXXXXXXXXXXXXXXXXXXX.....XXXXXXXXXX       ",
"        XXXXXXXXX.....XXXXXXXXXXXXXXXXXXXX.....XXXXXXXXXX       ",
"        XXXXXXXXXX...XXXXXXXXXXXXXXXXXXXXXX...XXXXXXXXXXX       "
};
